<?xml version="1.0" encoding="iso-8859-1"?>
<!-- Generator: Adobe Illustrator 19.0.0, SVG Export Plug-In . SVG Version: 6.00 Build 0)  -->
<svg version="1.1" id="Capa_1" xmlns="http://www.w3.org/2000/svg" xmlns:xlink="http://www.w3.org/1999/xlink" x="0px" y="0px"
	 viewBox="0 0 511.999 511.999" style="enable-background:new 0 0 511.999 511.999;" xml:space="preserve">
<g>
	<g>
		<path d="M381.397,324.919v73.556h-77.037v34.751h94.412c9.597,0,17.375-7.778,17.375-17.375v-90.931H381.397z"/>
	</g>
</g>
<g>
	<g>
		<path d="M413.826,0H143.349c-34.49,0-62.551,28.061-62.551,62.551v308.123c0,34.49,28.061,62.551,62.551,62.551h35.909v-34.751
			h-35.909c-15.331,0-27.801-12.476-27.801-27.801c0-15.649,12.73-28.38,28.38-28.38h269.897c9.597,0,17.375-7.778,17.375-17.375
			V17.375C431.201,7.778,423.423,0,413.826,0z M396.45,307.544H143.928c-10.199,0-19.843,2.433-28.38,6.747V62.551
			c0-15.331,12.476-27.801,27.801-27.801H396.45V307.544z"/>
	</g>
</g>
<g>
	<g>
		<rect x="160.724" y="17.375" width="34.751" height="307.544"/>
	</g>
</g>
<g>
	<g>
		<path d="M303.787,362.566H179.843c-9.597,0-17.375,7.778-17.375,17.375v114.677c0,6.579,3.713,12.591,9.591,15.539
			c2.461,1.234,5.126,1.836,7.778,1.836c3.684,0,7.344-1.17,10.414-3.458l51.564-38.55l51.57,38.55
			c5.271,3.938,12.308,4.57,18.186,1.622c5.879-2.948,9.591-8.96,9.591-15.539V379.941
			C321.163,370.344,313.384,362.566,303.787,362.566z M286.406,459.938l-34.195-25.565c-3.081-2.311-6.742-3.463-10.402-3.463
			c-3.66,0-7.315,1.158-10.408,3.469l-34.189,25.559v-62.621h89.194V459.938z"/>
	</g>
</g>
<g>
</g>
<g>
</g>
<g>
</g>
<g>
</g>
<g>
</g>
<g>
</g>
<g>
</g>
<g>
</g>
<g>
</g>
<g>
</g>
<g>
</g>
<g>
</g>
<g>
</g>
<g>
</g>
<g>
</g>
</svg>
